<svg width="304" height="81" xmlns="http://www.w3.org/2000/svg" xmlns:xlink="http://www.w3.org/1999/xlink" xml:space="preserve" overflow="hidden"><defs><clipPath id="clip0"><rect x="920" y="480" width="304" height="81"/></clipPath><clipPath id="clip1"><rect x="920" y="480" width="304" height="81"/></clipPath><clipPath id="clip2"><rect x="920" y="481" width="304" height="80"/></clipPath><clipPath id="clip3"><rect x="920" y="481" width="304" height="80"/></clipPath><clipPath id="clip4"><rect x="920" y="481" width="304" height="80"/></clipPath></defs><g clip-path="url(#clip0)" transform="translate(-920 -480)"><g clip-path="url(#clip1)"><g clip-path="url(#clip2)"><g clip-path="url(#clip3)"><g clip-path="url(#clip4)"><path d="M0 39.8814C22.0247 39.8814 39.8793 57.7369 39.8793 79.7629 17.8546 79.7629 0 61.9073 0 39.8814Z" fill="#FFFFFF" fill-rule="nonzero" fill-opacity="1" transform="matrix(1.00048 0 0 1 920 481)"/><path d="M39.8793 0C39.8793 22.0259 22.0247 39.8814 0 39.8814 0 17.8555 17.8546 0 39.8793 0Z" fill="#FFFFFF" fill-rule="nonzero" fill-opacity="1" transform="matrix(1.00048 0 0 1 920 481)"/><path d="M79.7585 39.8814C79.7585 61.9073 61.9041 79.7629 39.8793 79.7629 39.8793 57.7369 57.7339 39.8814 79.7585 39.8814Z" fill="#FFFFFF" fill-rule="nonzero" fill-opacity="1" transform="matrix(1.00048 0 0 1 920 481)"/><path d="M79.7585 39.8814 39.8793 39.8814 39.8793 79.7629C39.8793 57.7369 57.7339 39.8814 79.7585 39.8814Z" fill="#FFFFFF" fill-rule="nonzero" fill-opacity="1" transform="matrix(1.00048 0 0 1 920 481)"/><path d="M0 39.8814C22.0247 39.8814 39.8793 57.7369 39.8793 79.7629 17.8546 79.7629 0 61.9073 0 39.8814Z" fill="#FFFFFF" fill-rule="nonzero" fill-opacity="1" transform="matrix(1.00048 0 0 1 920 481)"/><path d="M39.8793 0C39.8793 22.0259 22.0247 39.8814 0 39.8814 0 17.8555 17.8546 0 39.8793 0Z" fill="#FFFFFF" fill-rule="nonzero" fill-opacity="1" transform="matrix(1.00048 0 0 1 920 481)"/><path d="M79.7585 39.8814C79.7585 61.9073 61.9041 79.7629 39.8793 79.7629 39.8793 57.7369 57.7339 39.8814 79.7585 39.8814Z" fill="#FFFFFF" fill-rule="nonzero" fill-opacity="1" transform="matrix(1.00048 0 0 1 920 481)"/><path d="M79.7585 39.8814 39.8793 39.8814 39.8793 79.7629C39.8793 57.7369 57.7339 39.8814 79.7585 39.8814Z" fill="#FFFFFF" fill-rule="nonzero" fill-opacity="1" transform="matrix(1.00048 0 0 1 920 481)"/><path d="M303.254 37.7821 297.836 38.7418C297.609 38.0487 297.249 37.3889 296.756 36.7624 296.276 36.1359 295.623 35.6228 294.796 35.2229 293.97 34.823 292.937 34.623 291.698 34.623 290.004 34.623 288.592 35.0029 287.459 35.7627 286.326 36.5091 285.759 37.4755 285.759 38.6619 285.759 39.6882 286.139 40.5146 286.899 41.1411 287.659 41.7676 288.885 42.2807 290.578 42.6807L295.456 43.8003C298.282 44.4534 300.388 45.4598 301.774 46.8194 303.16 48.179 303.853 49.9451 303.853 52.1178 303.853 53.9573 303.32 55.5968 302.254 57.0363 301.201 58.4626 299.728 59.5822 297.836 60.3953 295.956 61.2084 293.777 61.615 291.298 61.615 287.859 61.615 285.053 60.8818 282.881 59.4156 280.708 57.9361 279.375 55.8367 278.882 53.1175L284.66 52.2378C285.019 53.744 285.759 54.8837 286.879 55.6567 287.999 56.4165 289.458 56.7964 291.258 56.7964 293.217 56.7964 294.783 56.3899 295.956 55.5768 297.129 54.7504 297.715 53.744 297.715 52.5577 297.715 51.5979 297.356 50.7916 296.636 50.1384 295.93 49.4853 294.843 48.9921 293.377 48.6589L288.178 47.5192C285.313 46.8661 283.194 45.8263 281.821 44.4001 280.462 42.9739 279.782 41.1678 279.782 38.9817 279.782 37.169 280.288 35.5828 281.301 34.2232 282.314 32.8636 283.714 31.8039 285.499 31.0441 287.286 30.271 289.331 29.8845 291.637 29.8845 294.956 29.8845 297.568 30.6043 299.474 32.0438 301.381 33.4701 302.64 35.3828 303.254 37.7821Z" fill="#FFFFFF" fill-rule="nonzero" fill-opacity="1" transform="matrix(1.00048 0 0 1 920 481)"/><path d="M266.222 60.9951 266.222 30.2843 272.2 30.2843 272.2 60.9951 266.222 60.9951ZM269.24 25.5457C268.201 25.5457 267.308 25.1991 266.561 24.506 265.828 23.7995 265.462 22.9598 265.462 21.9867 265.462 21.0004 265.828 20.1606 266.561 19.4674 267.308 18.761 268.201 18.4078 269.24 18.4078 270.28 18.4078 271.166 18.761 271.899 19.4674 272.646 20.1606 273.019 21.0004 273.019 21.9867 273.019 22.9598 272.646 23.7995 271.899 24.506 271.166 25.1991 270.28 25.5457 269.24 25.5457Z" fill="#FFFFFF" fill-rule="nonzero" fill-opacity="1" transform="matrix(1.00048 0 0 1 920 481)"/><path d="M259.609 30.2843 259.609 35.0829 242.834 35.0829 242.834 30.2843 259.609 30.2843ZM247.333 22.9265 253.311 22.9265 253.311 51.9778C253.311 53.1375 253.484 54.0106 253.83 54.597 254.177 55.1702 254.624 55.5634 255.17 55.7767 255.73 55.9766 256.336 56.0765 256.989 56.0765 257.469 56.0765 257.889 56.0432 258.249 55.9766 258.609 55.9099 258.889 55.8567 259.088 55.8167L260.168 60.7552C259.822 60.8884 259.328 61.0218 258.689 61.1551 258.049 61.3017 257.249 61.3817 256.29 61.395 254.717 61.4216 253.251 61.1417 251.891 60.5552 250.532 59.9687 249.432 59.0624 248.592 57.836 247.753 56.6098 247.333 55.0702 247.333 53.2175L247.333 22.9265Z" fill="#FFFFFF" fill-rule="nonzero" fill-opacity="1" transform="matrix(1.00048 0 0 1 920 481)"/><path d="M217.383 42.7604 217.383 60.995 211.406 60.995 211.406 20.0473 217.303 20.0473 217.303 35.2827 217.684 35.2827C218.403 33.6299 219.503 32.3169 220.982 31.3439 222.462 30.3709 224.394 29.8843 226.78 29.8843 228.887 29.8843 230.726 30.3175 232.299 31.1839 233.885 32.0503 235.11 33.3433 235.977 35.0628 236.857 36.769 237.297 38.9016 237.297 41.4608L237.297 60.995 231.319 60.995 231.319 42.1806C231.319 39.928 230.739 38.1818 229.579 36.9422 228.42 35.6892 226.807 35.0628 224.741 35.0628 223.328 35.0628 222.062 35.3626 220.942 35.9625 219.836 36.5623 218.963 37.4421 218.323 38.6017 217.697 39.748 217.383 41.1343 217.383 42.7604Z" fill="#FFFFFF" fill-rule="nonzero" fill-opacity="1" transform="matrix(1.00048 0 0 1 920 481)"/><path d="M183.735 42.7606 183.735 60.9952 177.758 60.9952 177.758 30.2843 183.496 30.2843 183.496 35.2829 183.875 35.2829C184.582 33.6567 185.688 32.3504 187.194 31.364 188.713 30.3777 190.626 29.8845 192.932 29.8845 195.025 29.8845 196.857 30.3243 198.43 31.2041 200.003 32.0705 201.223 33.3634 202.089 35.0829 202.956 36.8024 203.389 38.9284 203.389 41.461L203.389 60.9952 197.411 60.9952 197.411 42.1808C197.411 39.9548 196.831 38.2153 195.671 36.9623 194.512 35.6961 192.919 35.0629 190.893 35.0629 189.507 35.0629 188.274 35.3629 187.194 35.9626 186.128 36.5625 185.281 37.4422 184.655 38.6018 184.042 39.7482 183.735 41.1345 183.735 42.7606Z" fill="#FFFFFF" fill-rule="nonzero" fill-opacity="1" transform="matrix(1.00048 0 0 1 920 481)"/><path d="M157.95 61.615C154.924 61.615 152.319 60.9685 150.133 59.6755 147.96 58.3692 146.28 56.5365 145.094 54.1772 143.921 51.8046 143.335 49.0254 143.335 45.8397 143.335 42.6939 143.921 39.9215 145.094 37.5222 146.28 35.1229 147.933 33.2501 150.053 31.9039 152.185 30.5576 154.677 29.8845 157.53 29.8845 159.263 29.8845 160.942 30.1711 162.568 30.7442 164.194 31.3174 165.654 32.2171 166.947 33.4434 168.239 34.6697 169.259 36.2625 170.006 38.2219 170.752 40.1681 171.125 42.534 171.125 45.3199L171.125 47.4392 146.714 47.4392 146.714 42.9606 165.268 42.9606C165.268 41.3877 164.948 39.9948 164.308 38.7818 163.668 37.5555 162.768 36.5891 161.609 35.8826 160.462 35.1762 159.116 34.823 157.57 34.823 155.891 34.823 154.424 35.2362 153.171 36.0626 151.932 36.8757 150.972 37.9421 150.293 39.2617 149.626 40.5679 149.293 41.9875 149.293 43.5204L149.293 47.0194C149.293 49.0721 149.653 50.8182 150.373 52.2578 151.105 53.6973 152.126 54.797 153.431 55.5568 154.738 56.3032 156.263 56.6765 158.01 56.6765 159.143 56.6765 160.175 56.5165 161.109 56.1966 162.042 55.8633 162.848 55.3702 163.528 54.7171 164.208 54.0639 164.727 53.2575 165.088 52.2978L170.746 53.3174C170.292 54.9836 169.479 56.4432 168.306 57.6961 167.146 58.9358 165.687 59.9022 163.928 60.5953 162.182 61.2751 160.189 61.615 157.95 61.615Z" fill="#FFFFFF" fill-rule="nonzero" fill-opacity="1" transform="matrix(1.00048 0 0 1 920 481)"/><path d="M130.734 32.9834C130.347 31.7704 129.828 30.6841 129.174 29.7244 128.535 28.7513 127.768 27.9249 126.876 27.2451 125.982 26.552 124.963 26.0255 123.817 25.6656 122.683 25.3057 121.437 25.1257 120.078 25.1257 117.772 25.1257 115.692 25.7189 113.84 26.9052 111.988 28.0915 110.521 29.831 109.441 32.1237 108.375 34.4029 107.842 37.1954 107.842 40.5011 107.842 43.8202 108.382 46.626 109.461 48.9186 110.541 51.2113 112.021 52.9508 113.9 54.137 115.779 55.3234 117.919 55.9166 120.318 55.9166 122.543 55.9166 124.483 55.4633 126.136 54.5569 127.802 53.6506 129.088 52.3709 129.994 50.7181 130.914 49.0519 131.374 47.0925 131.374 44.8399L132.973 45.1397 121.257 45.1397 121.257 40.0413 137.352 40.0413 137.352 44.6999C137.352 48.1389 136.619 51.1246 135.152 53.6572 133.7 56.1764 131.687 58.1226 129.115 59.4955 126.556 60.8684 123.623 61.5549 120.318 61.5549 116.612 61.5549 113.36 60.7018 110.561 58.9956 107.775 57.2895 105.603 54.8702 104.043 51.7378 102.484 48.5921 101.704 44.8598 101.704 40.5411 101.704 37.2754 102.157 34.343 103.063 31.7438 103.97 29.1445 105.243 26.9386 106.882 25.1257 108.535 23.2996 110.474 21.9067 112.7 20.947 114.939 19.9739 117.385 19.4874 120.037 19.4874 122.25 19.4874 124.31 19.814 126.216 20.4672 128.135 21.1203 129.841 22.0467 131.334 23.2463 132.84 24.4459 134.086 25.8722 135.072 27.5251 136.059 29.1645 136.725 30.984 137.072 32.9834L130.734 32.9834Z" fill="#FFFFFF" fill-rule="nonzero" fill-opacity="1" transform="matrix(1.00048 0 0 1 920 481)"/></g></g></g></g></g></svg>